<?xml version="1.0" encoding="utf-8"?>
<svg xmlns="http://www.w3.org/2000/svg" xml:space="preserve" id="Layer_1" x="0" y="0" version="1.1" viewBox="0 0 960 960">
  <style>
    .st0{fill:#e6e6e6}.st2{fill:#333}.st3{fill:#ccc}
  </style>
  <path d="M776.1 613.4H370.6c-11.4 0-20.6-9.2-20.6-20.6 0-11.4 9.2-20.6 20.6-20.6h384.9c11.4 0 20.6 9.2 20.6 20.6v20.6zm-624.6-407h183.7v41.2H151.5z" class="st0"/>
  <path fill="#d83945" d="M220.9 254.5h-67.8c-15.2 0-27.5-12.3-27.5-27.5s12.3-27.5 27.5-27.5h67.8c15.2 0 27.5 12.3 27.5 27.5.1 15.2-12.2 27.5-27.5 27.5z"/>
  <path d="M327.5 208.1h41.2v495.7h-41.2z" class="st0" transform="rotate(-8.35 348.12795809 455.88751793)"/>
  <path d="M776.1 704.2h-411V663h369.7c22.8 0 41.3 18.4 41.3 41.2z" class="st0"/>
  <circle cx="686.9" cy="719.3" r="41.2" class="st2"/>
  <circle cx="686.9" cy="719.3" r="21.9" class="st3"/>
  <circle cx="450.4" cy="719.3" r="41.2" class="st2"/>
  <circle cx="450.4" cy="719.3" r="21.9" class="st3"/>
  <path fill="#ea3d53" d="M791.9 326.1H344.3c-7.1 0-12.9-5.8-12.9-12.9v-42.3c0-7.1 5.8-12.9 12.9-12.9h447.6c7.1 0 12.9 5.8 12.9 12.9v42.3c0 7.1-5.8 12.9-12.9 12.9z"/>
  <path fill="#b12b3d" d="m762.1 326.1-9.1 66.3h-57.3v-66.3H671v66.3h-87.7v-66.3h-24.6v66.3H471v-66.3h-24.6v66.3h-63.2l-9.1-66.3h-27.5l31.7 226.6c2.1 11.3 12.1 19.5 23.8 19.5H734c11.7 0 21.8-8.2 23.8-19.5l31.7-226.6h-27.4zM446.4 546.4h-23.6c-10.3 0-19.1-7.4-20.9-17.5l-4.8-35.2h49.3v52.7zm0-77.3h-52.7l-7.1-52.1h59.8v52.1zm112.3 77.3H471v-52.6h87.7v52.6zm0-77.3H471V417h87.7v52.1zM671 546.4h-87.7v-52.6H671v52.6zm0-77.3h-87.7V417H671v52.1zm63.3 59.8c-1.8 10.1-10.6 17.5-20.9 17.5h-17.8v-52.6h43.5l-4.8 35.1zm8.2-59.8h-46.8V417h54l-7.2 52.1z"/>
</svg>